<mxfile host="app.diagrams.net" modified="2021-10-16T08:00:16.108Z" agent="5.0 (Macintosh; Intel Mac OS X 10_15_7) AppleWebKit/537.36 (KHTML, like Gecko) Chrome/94.0.4606.81 Safari/537.36" etag="E17aM1n6SuMyEON7j52P" version="15.5.4" type="github">
  <diagram id="tQDjMocFXKXEFSUqP34_" name="Page-1">
    <mxGraphModel dx="539" dy="428" grid="1" gridSize="10" guides="1" tooltips="1" connect="1" arrows="1" fold="1" page="1" pageScale="1" pageWidth="827" pageHeight="1169" math="0" shadow="0">
      <root>
        <mxCell id="0" />
        <mxCell id="1" parent="0" />
        <mxCell id="ACt26a-Dx7Qhx9vZcsKw-1" value="" style="endArrow=classic;html=1;rounded=0;" edge="1" parent="1">
          <mxGeometry width="50" height="50" relative="1" as="geometry">
            <mxPoint x="110" y="70" as="sourcePoint" />
            <mxPoint x="110" y="270" as="targetPoint" />
          </mxGeometry>
        </mxCell>
        <mxCell id="ACt26a-Dx7Qhx9vZcsKw-2" value="コンポーネントID" style="text;html=1;strokeColor=none;fillColor=none;align=center;verticalAlign=middle;whiteSpace=wrap;rounded=0;" vertex="1" parent="1">
          <mxGeometry x="30" y="270" width="110" height="30" as="geometry" />
        </mxCell>
        <mxCell id="ACt26a-Dx7Qhx9vZcsKw-4" value="&lt;font style=&quot;font-size: 20px&quot;&gt;材,杣,杉,松,梅&lt;/font&gt;" style="shape=callout;whiteSpace=wrap;html=1;perimeter=calloutPerimeter;fontFamily=MotoyaLMaru;fontSource=https%3A%2F%2Ffonts.googleapis.com%2Fcss%3Ffamily%3DMotoyaLMaru;fontSize=30;flipV=1;size=30;position=0.16;position2=0;" vertex="1" parent="1">
          <mxGeometry x="370" y="110" width="160" height="69" as="geometry" />
        </mxCell>
        <mxCell id="ACt26a-Dx7Qhx9vZcsKw-5" value="の特徴の平均として&#xa;「木」が得られる。" style="text;strokeColor=none;fillColor=none;align=left;verticalAlign=middle;spacingLeft=4;spacingRight=4;overflow=hidden;points=[[0,0.5],[1,0.5]];portConstraint=eastwest;rotatable=0;fontFamily=Helvetica;fontSize=16;" vertex="1" parent="1">
          <mxGeometry x="390" y="190" width="160" height="40" as="geometry" />
        </mxCell>
        <mxCell id="ACt26a-Dx7Qhx9vZcsKw-91" value="" style="shape=table;html=1;whiteSpace=wrap;startSize=0;container=1;collapsible=0;childLayout=tableLayout;strokeColor=default;strokeWidth=1;" vertex="1" parent="1">
          <mxGeometry x="140" y="90" width="120" height="120" as="geometry" />
        </mxCell>
        <mxCell id="ACt26a-Dx7Qhx9vZcsKw-92" value="" style="shape=partialRectangle;html=1;whiteSpace=wrap;collapsible=0;dropTarget=0;pointerEvents=0;fillColor=none;top=0;left=0;bottom=0;right=0;points=[[0,0.5],[1,0.5]];portConstraint=eastwest;strokeColor=default;strokeWidth=1;" vertex="1" parent="ACt26a-Dx7Qhx9vZcsKw-91">
          <mxGeometry width="120" height="40" as="geometry" />
        </mxCell>
        <mxCell id="ACt26a-Dx7Qhx9vZcsKw-93" value="" style="shape=partialRectangle;html=1;whiteSpace=wrap;connectable=0;fillColor=none;top=0;left=0;bottom=0;right=0;overflow=hidden;pointerEvents=1;strokeColor=default;strokeWidth=1;" vertex="1" parent="ACt26a-Dx7Qhx9vZcsKw-92">
          <mxGeometry width="60" height="40" as="geometry">
            <mxRectangle width="60" height="40" as="alternateBounds" />
          </mxGeometry>
        </mxCell>
        <mxCell id="ACt26a-Dx7Qhx9vZcsKw-94" value="" style="shape=partialRectangle;html=1;whiteSpace=wrap;connectable=0;fillColor=none;top=0;left=0;bottom=0;right=0;overflow=hidden;pointerEvents=1;strokeColor=default;strokeWidth=1;" vertex="1" parent="ACt26a-Dx7Qhx9vZcsKw-92">
          <mxGeometry x="60" width="60" height="40" as="geometry">
            <mxRectangle width="60" height="40" as="alternateBounds" />
          </mxGeometry>
        </mxCell>
        <mxCell id="ACt26a-Dx7Qhx9vZcsKw-96" value="" style="shape=partialRectangle;html=1;whiteSpace=wrap;collapsible=0;dropTarget=0;pointerEvents=0;fillColor=none;top=0;left=0;bottom=0;right=0;points=[[0,0.5],[1,0.5]];portConstraint=eastwest;strokeColor=default;strokeWidth=1;" vertex="1" parent="ACt26a-Dx7Qhx9vZcsKw-91">
          <mxGeometry y="40" width="120" height="40" as="geometry" />
        </mxCell>
        <mxCell id="ACt26a-Dx7Qhx9vZcsKw-97" value="" style="shape=partialRectangle;html=1;whiteSpace=wrap;connectable=0;fillColor=none;top=0;left=0;bottom=0;right=0;overflow=hidden;pointerEvents=1;strokeColor=default;strokeWidth=1;" vertex="1" parent="ACt26a-Dx7Qhx9vZcsKw-96">
          <mxGeometry width="60" height="40" as="geometry">
            <mxRectangle width="60" height="40" as="alternateBounds" />
          </mxGeometry>
        </mxCell>
        <mxCell id="ACt26a-Dx7Qhx9vZcsKw-98" value="" style="shape=partialRectangle;html=1;whiteSpace=wrap;connectable=0;fillColor=none;top=0;left=0;bottom=0;right=0;overflow=hidden;pointerEvents=1;strokeColor=default;strokeWidth=1;" vertex="1" parent="ACt26a-Dx7Qhx9vZcsKw-96">
          <mxGeometry x="60" width="60" height="40" as="geometry">
            <mxRectangle width="60" height="40" as="alternateBounds" />
          </mxGeometry>
        </mxCell>
        <mxCell id="ACt26a-Dx7Qhx9vZcsKw-100" value="" style="shape=partialRectangle;html=1;whiteSpace=wrap;collapsible=0;dropTarget=0;pointerEvents=0;fillColor=none;top=0;left=0;bottom=0;right=0;points=[[0,0.5],[1,0.5]];portConstraint=eastwest;strokeColor=default;strokeWidth=1;" vertex="1" parent="ACt26a-Dx7Qhx9vZcsKw-91">
          <mxGeometry y="80" width="120" height="40" as="geometry" />
        </mxCell>
        <mxCell id="ACt26a-Dx7Qhx9vZcsKw-101" value="" style="shape=partialRectangle;html=1;whiteSpace=wrap;connectable=0;fillColor=none;top=0;left=0;bottom=0;right=0;overflow=hidden;pointerEvents=1;strokeColor=default;strokeWidth=1;" vertex="1" parent="ACt26a-Dx7Qhx9vZcsKw-100">
          <mxGeometry width="60" height="40" as="geometry">
            <mxRectangle width="60" height="40" as="alternateBounds" />
          </mxGeometry>
        </mxCell>
        <mxCell id="ACt26a-Dx7Qhx9vZcsKw-102" value="" style="shape=partialRectangle;html=1;whiteSpace=wrap;connectable=0;fillColor=none;top=0;left=0;bottom=0;right=0;overflow=hidden;pointerEvents=1;strokeColor=default;strokeWidth=1;" vertex="1" parent="ACt26a-Dx7Qhx9vZcsKw-100">
          <mxGeometry x="60" width="60" height="40" as="geometry">
            <mxRectangle width="60" height="40" as="alternateBounds" />
          </mxGeometry>
        </mxCell>
      </root>
    </mxGraphModel>
  </diagram>
</mxfile>
